<?xml version="1.0" standalone="no"?>
<!DOCTYPE>
<svg version="1.0" xmlns="http://www.w3.org/2000/svg"
 width="512.000000pt" height="512.000000pt" viewBox="0 0 512.000000 512.000000"
 preserveAspectRatio="xMidYMid meet">

<g transform="translate(0.000000,512.000000) scale(0.100000,-0.100000)"
fill="#000000" stroke="none">
<path d="M1885 4549 c-155 -30 -314 -156 -385 -303 -49 -103 -60 -165 -60
-342 l0 -143 -407 -3 -408 -3 -67 -32 c-93 -44 -151 -100 -196 -191 l-37 -76
0 -1296 0 -1296 37 -76 c45 -91 103 -147 196 -191 l67 -32 1935 0 1935 0 67
32 c93 44 151 100 196 191 l37 76 0 1295 0 1296 -32 67 c-44 93 -100 151 -191
196 l-76 37 -407 3 -407 3 -4 177 c-4 158 -7 184 -30 243 -35 93 -68 147 -132
212 -62 63 -119 99 -215 136 l-66 26 -650 2 c-381 1 -671 -3 -700 -8z m1317
-160 c75 -16 143 -53 198 -108 92 -92 120 -181 120 -383 l0 -138 -79 0 -79 0
-4 158 c-4 172 -9 191 -69 251 -69 70 -26 66 -729 66 -703 0 -660 4 -729 -66
-60 -60 -65 -79 -69 -251 l-4 -158 -79 0 -79 0 0 138 c0 202 28 291 120 382
53 54 105 84 183 105 68 18 1214 22 1299 4z m-27 -334 c24 -23 25 -29 25 -160
l0 -135 -640 0 -640 0 0 135 c0 131 1 137 25 160 l24 25 591 0 591 0 24 -25z
m1275 -466 c66 -14 127 -62 159 -124 l26 -49 3 -492 3 -492 -43 -37 c-24 -20
-79 -54 -123 -75 -152 -74 -143 -73 -782 -77 l-573 -4 0 62 c0 34 -5 79 -12
100 -15 53 -68 112 -123 138 -43 20 -58 21 -424 21 -414 0 -416 0 -485 -60
-52 -46 -76 -107 -76 -190 l0 -71 -572 4 c-640 4 -631 3 -783 77 -44 21 -99
55 -123 75 l-43 37 3 492 3 492 25 48 c31 61 85 105 147 122 64 17 3713 20
3793 3z m-1537 -1200 c41 -19 47 -49 47 -229 0 -180 -6 -210 -47 -229 -33 -15
-673 -15 -706 0 -41 19 -47 49 -47 229 0 177 6 210 44 228 30 15 677 16 709 1z"/>
</g>
</svg>
